<svg xmlns="http://www.w3.org/2000/svg" xmlns:xlink="http://www.w3.org/1999/xlink" width="200" zoomAndPan="magnify"
     viewBox="0 0 150 179.999997" height="240" preserveAspectRatio="xMidYMid meet" version="1.0">
    <style>
        @media ( prefers-color-scheme: dark ) {
        .open-curly {
        fill: #ffffff;
        }
        }
    </style>
    <defs>
        <clipPath id="f3942155a5">
            <path d="M 15 10.589844 L 63 10.589844 L 63 144 L 15 144 Z M 15 10.589844 " clip-rule="nonzero"/>
        </clipPath>
        <clipPath id="39f1250dd9">
            <path d="M 69 36 L 117 36 L 117 169.589844 L 69 169.589844 Z M 69 36 " clip-rule="nonzero"/>
        </clipPath>
    </defs>
    <g clip-path="url(#f3942155a5)">
        <path fill="#393536"
              class="open-curly"
              d="M 15.039062 85.421875 L 15.039062 68.808594 C 18.402344 68.625 20.9375 68.117188 22.640625 67.285156 C 24.347656 66.453125 25.820312 65.0625 27.0625 63.097656 C 28.308594 61.136719 29.160156 58.679688 29.621094 55.726562 C 29.988281 53.511719 30.175781 49.660156 30.175781 44.167969 C 30.175781 35.214844 30.589844 28.972656 31.417969 25.441406 C 32.246094 21.914062 33.742188 19.074219 35.910156 16.929688 C 38.074219 14.78125 41.230469 13.085938 45.378906 11.84375 C 48.1875 11.011719 52.609375 10.597656 58.644531 10.597656 L 62.308594 10.597656 L 62.308594 27.140625 C 57.195312 27.140625 53.910156 27.429688 52.460938 28.003906 C 51.011719 28.582031 49.9375 29.457031 49.246094 30.632812 C 48.554688 31.8125 48.210938 33.832031 48.210938 36.691406 C 48.210938 39.597656 48.003906 45.113281 47.589844 53.234375 C 47.359375 57.804688 46.761719 61.507812 45.792969 64.34375 C 44.824219 67.183594 43.589844 69.523438 42.09375 71.371094 C 40.597656 73.214844 38.304688 75.132812 35.21875 77.117188 C 37.9375 78.683594 40.160156 80.519531 41.886719 82.617188 C 43.617188 84.71875 44.9375 87.269531 45.863281 90.269531 C 46.78125 93.265625 47.382812 97.28125 47.65625 102.3125 C 47.980469 109.972656 48.140625 114.863281 48.140625 116.988281 C 48.140625 120.03125 48.511719 122.152344 49.246094 123.355469 C 49.984375 124.554688 51.101562 125.464844 52.597656 126.089844 C 54.09375 126.710938 57.332031 127.023438 62.308594 127.023438 L 62.308594 143.636719 L 58.644531 143.636719 C 52.425781 143.636719 47.65625 143.136719 44.339844 142.148438 C 41.023438 141.15625 38.226562 139.503906 35.945312 137.199219 C 33.664062 134.890625 32.132812 132.039062 31.347656 128.648438 C 30.566406 125.257812 30.175781 119.914062 30.175781 112.625 C 30.175781 104.136719 29.804688 98.621094 29.070312 96.082031 C 28.054688 92.390625 26.523438 89.75 24.472656 88.15625 C 22.421875 86.5625 19.277344 85.652344 15.039062 85.421875 "
              fill-opacity="1" fill-rule="nonzero"/>
    </g>
    <path fill="#f7df1e"
          d="M 119.882812 45.058594 L 109.066406 45.058594 L 109.066406 34.226562 L 119.882812 34.226562 L 119.882812 45.058594 "
          fill-opacity="1" fill-rule="nonzero"/>
    <path fill="#f7df1e"
          d="M 117.328125 66.726562 L 109.066406 66.726562 L 109.066406 58.449219 L 117.328125 58.449219 L 117.328125 66.726562 "
          fill-opacity="1" fill-rule="nonzero"/>
    <g clip-path="url(#39f1250dd9)">
        <path fill="#f7df1e"
              d="M 85.859375 53.335938 L 85.859375 45.058594 L 94.125 45.058594 L 94.125 53.335938 Z M 106.882812 92.035156 C 104.808594 90.445312 103.265625 87.804688 102.25 84.113281 C 101.695312 82.027344 101.363281 78.039062 101.253906 72.144531 L 94.125 72.144531 L 94.125 61.308594 L 101.097656 61.308594 C 100.925781 57.132812 100.558594 53.875 100.003906 51.542969 C 99.199219 48.152344 97.667969 45.292969 95.410156 42.960938 C 93.152344 40.632812 90.367188 38.980469 87.046875 38.011719 C 83.730469 37.042969 78.964844 36.558594 72.742188 36.558594 L 69.082031 36.558594 L 69.082031 53.101562 C 74.285156 53.101562 77.640625 53.414062 79.136719 54.035156 C 80.632812 54.660156 81.667969 55.546875 82.246094 56.699219 C 82.820312 57.855469 83.132812 60.160156 83.179688 63.621094 C 83.410156 74.605469 83.777344 81.710938 84.285156 84.941406 C 85.066406 89.648438 86.539062 93.523438 88.707031 96.570312 C 90.273438 98.695312 92.761719 100.863281 96.171875 103.078125 C 93.542969 104.601562 91.390625 106.367188 89.710938 108.375 C 88.027344 110.378906 86.679688 112.828125 85.667969 115.710938 C 84.652344 118.59375 84.03125 122.4375 83.800781 127.234375 C 83.433594 135.171875 83.234375 140.546875 83.214844 143.363281 C 83.1875 146.175781 82.820312 148.175781 82.109375 149.351562 C 81.394531 150.527344 80.277344 151.425781 78.757812 152.050781 C 77.234375 152.675781 74.011719 152.984375 69.082031 152.984375 L 69.082031 169.597656 L 72.742188 169.597656 C 78.777344 169.597656 83.203125 169.183594 86.011719 168.351562 C 90.203125 167.105469 93.382812 165.410156 95.550781 163.265625 C 97.714844 161.117188 99.199219 158.269531 100.003906 154.714844 C 100.8125 151.160156 101.214844 144.910156 101.214844 135.957031 C 101.214844 130.511719 101.398438 126.683594 101.769531 124.464844 C 102.273438 121.515625 103.140625 119.054688 104.359375 117.09375 C 105.578125 115.132812 107.042969 113.738281 108.75 112.90625 C 110.449219 112.074219 112.988281 111.570312 116.351562 111.382812 L 116.351562 94.769531 C 112.109375 94.539062 108.957031 93.628906 106.882812 92.035156 "
              fill-opacity="1" fill-rule="nonzero"/>
    </g>
    <path fill="#f7df1e"
          d="M 140.96875 24.019531 L 132.707031 24.019531 L 132.707031 15.738281 L 140.96875 15.738281 L 140.96875 24.019531 "
          fill-opacity="1" fill-rule="nonzero"/>
    <path fill="#f7df1e"
          d="M 99.535156 34.226562 L 84.105469 34.226562 L 84.105469 18.773438 L 99.535156 18.773438 L 99.535156 34.226562 "
          fill-opacity="1" fill-rule="nonzero"/>
</svg>
