<svg xmlns="http://www.w3.org/2000/svg" xmlns:xlink="http://www.w3.org/1999/xlink" width="1000" zoomAndPan="magnify"
     viewBox="0 0 750 239.999995" height="320" preserveAspectRatio="xMidYMid meet" version="1.0">
    <style>
        @media (prefers-color-scheme: dark) {
        .colored path {
            fill: #be7eff;
        }
        }
    </style>
    <defs>
        <g/>
        <clipPath id="6745799753">
            <path d="M 24 74.097656 L 63 74.097656 L 63 183 L 24 183 Z M 24 74.097656 " clip-rule="nonzero"/>
        </clipPath>
        <clipPath id="691d8c12e4">
            <path d="M 68 95 L 107 95 L 107 203.847656 L 68 203.847656 Z M 68 95 " clip-rule="nonzero"/>
        </clipPath>
        <clipPath id="f7061264a7">
            <path d="M 119 78 L 126.75 78 L 126.75 86 L 119 86 Z M 119 78 " clip-rule="nonzero"/>
        </clipPath>
        <clipPath id="577fef4717">
            <path d="M 335.933594 44.511719 L 373 44.511719 L 373 81 L 335.933594 81 Z M 335.933594 44.511719 "
                  clip-rule="nonzero"/>
        </clipPath>
        <clipPath id="f5a05143e1">
            <path d="M 336 45 L 379.433594 45 L 379.433594 101 L 336 101 Z M 336 45 " clip-rule="nonzero"/>
        </clipPath>
        <clipPath id="81be3f9e19">
            <path d="M 349 98 L 366 98 L 366 103.761719 L 349 103.761719 Z M 349 98 " clip-rule="nonzero"/>
        </clipPath>
    </defs>
    <g clip-path="url(#6745799753)">
        <path fill="#393536"
              d="M 24.03125 135.164062 L 24.03125 121.605469 C 26.773438 121.457031 28.839844 121.042969 30.230469 120.363281 C 31.621094 119.6875 32.824219 118.550781 33.835938 116.949219 C 34.851562 115.347656 35.546875 113.34375 35.921875 110.929688 C 36.222656 109.125 36.375 105.980469 36.375 101.496094 C 36.375 94.191406 36.710938 89.097656 37.386719 86.21875 C 38.066406 83.339844 39.285156 81.023438 41.050781 79.269531 C 42.816406 77.519531 45.390625 76.136719 48.773438 75.121094 C 51.0625 74.441406 54.667969 74.101562 59.59375 74.101562 L 62.578125 74.101562 L 62.578125 87.605469 C 58.410156 87.605469 55.730469 87.839844 54.546875 88.308594 C 53.363281 88.78125 52.492188 89.496094 51.929688 90.453125 C 51.363281 91.414062 51.082031 93.0625 51.082031 95.398438 C 51.082031 97.769531 50.914062 102.269531 50.574219 108.898438 C 50.386719 112.625 49.898438 115.648438 49.109375 117.964844 C 48.320312 120.28125 47.316406 122.191406 46.09375 123.695312 C 44.875 125.203125 43.003906 126.765625 40.488281 128.386719 C 42.703125 129.667969 44.515625 131.164062 45.925781 132.875 C 47.335938 134.589844 48.414062 136.671875 49.167969 139.117188 C 49.917969 141.566406 50.40625 144.84375 50.632812 148.945312 C 50.894531 155.199219 51.027344 159.1875 51.027344 160.921875 C 51.027344 163.40625 51.328125 165.136719 51.929688 166.117188 C 52.527344 167.097656 53.441406 167.839844 54.660156 168.347656 C 55.882812 168.855469 58.519531 169.113281 62.578125 169.113281 L 62.578125 182.667969 L 59.59375 182.667969 C 54.519531 182.667969 50.632812 182.261719 47.925781 181.453125 C 45.222656 180.644531 42.941406 179.296875 41.078125 177.414062 C 39.21875 175.53125 37.96875 173.207031 37.332031 170.4375 C 36.691406 167.671875 36.375 163.3125 36.375 157.363281 C 36.375 150.433594 36.074219 145.933594 35.472656 143.863281 C 34.644531 140.851562 33.394531 138.695312 31.722656 137.394531 C 30.050781 136.09375 27.488281 135.351562 24.03125 135.164062 "
              fill-opacity="1" fill-rule="nonzero"/>
    </g>
    <path fill="#f7df1e"
          class="colored"
          d="M 109.527344 102.226562 L 100.707031 102.226562 L 100.707031 93.386719 L 109.527344 93.386719 L 109.527344 102.226562 "
          fill-opacity="1" fill-rule="nonzero"/>
    <path fill="#f7df1e"
          class="colored"
          d="M 107.445312 119.90625 L 100.707031 119.90625 L 100.707031 113.152344 L 107.445312 113.152344 L 107.445312 119.90625 "
          fill-opacity="1" fill-rule="nonzero"/>
    <g clip-path="url(#691d8c12e4)">
        <path fill="#f7df1e"
              class="colored"
              d="M 81.785156 108.980469 L 81.785156 102.226562 L 88.523438 102.226562 L 88.523438 108.980469 Z M 98.929688 140.5625 C 97.238281 139.261719 95.976562 137.105469 95.152344 134.09375 C 94.699219 132.394531 94.425781 129.136719 94.339844 124.328125 L 88.523438 124.328125 L 88.523438 115.488281 L 94.210938 115.488281 C 94.070312 112.078125 93.773438 109.421875 93.320312 107.519531 C 92.664062 104.75 91.414062 102.414062 89.574219 100.515625 C 87.730469 98.613281 85.460938 97.265625 82.753906 96.476562 C 80.046875 95.683594 76.160156 95.289062 71.089844 95.289062 L 68.101562 95.289062 L 68.101562 108.789062 C 72.347656 108.789062 75.082031 109.042969 76.300781 109.550781 C 77.523438 110.058594 78.367188 110.785156 78.839844 111.726562 C 79.308594 112.667969 79.558594 114.550781 79.597656 117.375 C 79.785156 126.335938 80.085938 132.136719 80.5 134.773438 C 81.136719 138.613281 82.339844 141.777344 84.105469 144.261719 C 85.382812 145.996094 87.410156 147.765625 90.191406 149.570312 C 88.050781 150.8125 86.292969 152.253906 84.921875 153.894531 C 83.550781 155.53125 82.453125 157.527344 81.625 159.878906 C 80.800781 162.234375 80.292969 165.367188 80.105469 169.285156 C 79.804688 175.761719 79.644531 180.148438 79.628906 182.445312 C 79.605469 184.742188 79.308594 186.371094 78.726562 187.332031 C 78.140625 188.292969 77.230469 189.027344 75.992188 189.535156 C 74.75 190.042969 72.121094 190.296875 68.101562 190.296875 L 68.101562 203.855469 L 71.089844 203.855469 C 76.011719 203.855469 79.617188 203.515625 81.910156 202.835938 C 85.328125 201.820312 87.917969 200.4375 89.6875 198.6875 C 91.453125 196.933594 92.664062 194.609375 93.320312 191.710938 C 93.976562 188.808594 94.308594 183.707031 94.308594 176.402344 C 94.308594 171.960938 94.457031 168.832031 94.757812 167.023438 C 95.171875 164.617188 95.875 162.609375 96.871094 161.011719 C 97.867188 159.410156 99.058594 158.269531 100.449219 157.59375 C 101.839844 156.914062 103.90625 156.5 106.648438 156.351562 L 106.648438 142.792969 C 103.191406 142.605469 100.617188 141.859375 98.929688 140.5625 "
              fill-opacity="1" fill-rule="nonzero"/>
    </g>
    <g clip-path="url(#f7061264a7)">
        <path fill="#f7df1e"
              class="colored"
              d="M 126.726562 85.054688 L 119.988281 85.054688 L 119.988281 78.300781 L 126.726562 78.300781 L 126.726562 85.054688 "
              fill-opacity="1" fill-rule="nonzero"/>
    </g>
    <path fill="#f7df1e"
          class="colored"
          d="M 92.933594 93.386719 L 80.355469 93.386719 L 80.355469 80.777344 L 92.933594 80.777344 L 92.933594 93.386719 "
          fill-opacity="1" fill-rule="nonzero"/>
    <g fill="#393536" fill-opacity="1">
        <g transform="translate(121.156006, 168.746929)">
            <g>
                <path d="M 25.4375 0.9375 C 22.113281 0.9375 19.035156 0.359375 16.203125 -0.796875 C 13.367188 -1.953125 10.921875 -3.554688 8.859375 -5.609375 C 6.804688 -7.671875 5.203125 -10.117188 4.046875 -12.953125 C 2.898438 -15.785156 2.328125 -18.863281 2.328125 -22.1875 C 2.328125 -25.507812 2.910156 -28.585938 4.078125 -31.421875 C 5.253906 -34.253906 6.867188 -36.707031 8.921875 -38.78125 C 10.984375 -40.863281 13.421875 -42.492188 16.234375 -43.671875 C 19.046875 -44.847656 22.09375 -45.4375 25.375 -45.4375 C 28.820312 -45.4375 32.03125 -44.769531 35 -43.4375 C 37.96875 -42.113281 40.535156 -40.210938 42.703125 -37.734375 L 35.9375 -31.15625 C 34.65625 -32.65625 33.140625 -33.835938 31.390625 -34.703125 C 29.640625 -35.566406 27.722656 -36 25.640625 -36 C 23.734375 -36 21.984375 -35.65625 20.390625 -34.96875 C 18.796875 -34.28125 17.410156 -33.328125 16.234375 -32.109375 C 15.066406 -30.890625 14.160156 -29.4375 13.515625 -27.75 C 12.867188 -26.070312 12.546875 -24.257812 12.546875 -22.3125 C 12.546875 -20.320312 12.878906 -18.484375 13.546875 -16.796875 C 14.210938 -15.117188 15.128906 -13.660156 16.296875 -12.421875 C 17.472656 -11.179688 18.878906 -10.21875 20.515625 -9.53125 C 22.160156 -8.84375 23.957031 -8.5 25.90625 -8.5 C 28.03125 -8.5 29.976562 -8.941406 31.75 -9.828125 C 33.519531 -10.710938 35.023438 -11.910156 36.265625 -13.421875 L 43.046875 -6.96875 C 40.921875 -4.445312 38.363281 -2.5 35.375 -1.125 C 32.382812 0.25 29.070312 0.9375 25.4375 0.9375 Z M 25.4375 0.9375 "/>
            </g>
        </g>
    </g>
    <g fill="#393536" fill-opacity="1">
        <g transform="translate(177.948204, 168.746929)">
            <g>
                <path d="M 25.3125 0.9375 C 22.03125 0.9375 18.992188 0.335938 16.203125 -0.859375 C 13.410156 -2.054688 10.984375 -3.695312 8.921875 -5.78125 C 6.867188 -7.863281 5.253906 -10.3125 4.078125 -13.125 C 2.910156 -15.9375 2.328125 -18.976562 2.328125 -22.25 C 2.328125 -25.53125 2.910156 -28.585938 4.078125 -31.421875 C 5.253906 -34.253906 6.867188 -36.707031 8.921875 -38.78125 C 10.984375 -40.863281 13.410156 -42.492188 16.203125 -43.671875 C 18.992188 -44.847656 22.03125 -45.4375 25.3125 -45.4375 C 28.539062 -45.4375 31.5625 -44.847656 34.375 -43.671875 C 37.1875 -42.492188 39.617188 -40.863281 41.671875 -38.78125 C 43.734375 -36.707031 45.347656 -34.253906 46.515625 -31.421875 C 47.691406 -28.585938 48.28125 -25.53125 48.28125 -22.25 C 48.28125 -18.976562 47.691406 -15.9375 46.515625 -13.125 C 45.347656 -10.3125 43.734375 -7.863281 41.671875 -5.78125 C 39.617188 -3.695312 37.1875 -2.054688 34.375 -0.859375 C 31.5625 0.335938 28.539062 0.9375 25.3125 0.9375 Z M 25.3125 -8.5 C 27.164062 -8.5 28.867188 -8.84375 30.421875 -9.53125 C 31.972656 -10.21875 33.3125 -11.179688 34.4375 -12.421875 C 35.570312 -13.660156 36.457031 -15.117188 37.09375 -16.796875 C 37.738281 -18.484375 38.0625 -20.300781 38.0625 -22.25 C 38.0625 -24.195312 37.738281 -26.007812 37.09375 -27.6875 C 36.457031 -29.375 35.570312 -30.828125 34.4375 -32.046875 C 33.3125 -33.265625 31.972656 -34.226562 30.421875 -34.9375 C 28.867188 -35.644531 27.164062 -36 25.3125 -36 C 23.445312 -36 21.738281 -35.644531 20.1875 -34.9375 C 18.644531 -34.226562 17.304688 -33.265625 16.171875 -32.046875 C 15.046875 -30.828125 14.160156 -29.375 13.515625 -27.6875 C 12.867188 -26.007812 12.546875 -24.195312 12.546875 -22.25 C 12.546875 -20.300781 12.867188 -18.484375 13.515625 -16.796875 C 14.160156 -15.117188 15.046875 -13.671875 16.171875 -12.453125 C 17.304688 -11.234375 18.644531 -10.269531 20.1875 -9.5625 C 21.738281 -8.851562 23.445312 -8.5 25.3125 -8.5 Z M 25.3125 -8.5 "/>
            </g>
        </g>
    </g>
    <g fill="#393536" fill-opacity="1">
        <g transform="translate(240.983947, 168.746929)">
            <g>
                <path d="M 4.984375 -44.5 L 22.578125 -44.5 C 25.898438 -44.5 28.96875 -43.929688 31.78125 -42.796875 C 34.59375 -41.671875 37.023438 -40.125 39.078125 -38.15625 C 41.140625 -36.1875 42.757812 -33.835938 43.9375 -31.109375 C 45.113281 -28.390625 45.703125 -25.4375 45.703125 -22.25 C 45.703125 -19.0625 45.113281 -16.113281 43.9375 -13.40625 C 42.757812 -10.707031 41.140625 -8.363281 39.078125 -6.375 C 37.023438 -4.382812 34.59375 -2.820312 31.78125 -1.6875 C 28.96875 -0.5625 25.898438 0 22.578125 0 L 4.984375 0 Z M 22.65625 -9.09375 C 24.507812 -9.09375 26.210938 -9.425781 27.765625 -10.09375 C 29.316406 -10.757812 30.664062 -11.675781 31.8125 -12.84375 C 32.96875 -14.019531 33.863281 -15.40625 34.5 -17 C 35.144531 -18.59375 35.46875 -20.34375 35.46875 -22.25 C 35.46875 -24.15625 35.144531 -25.90625 34.5 -27.5 C 33.863281 -29.09375 32.96875 -30.472656 31.8125 -31.640625 C 30.664062 -32.816406 29.316406 -33.738281 27.765625 -34.40625 C 26.210938 -35.070312 24.507812 -35.40625 22.65625 -35.40625 L 14.671875 -35.40625 L 14.671875 -9.09375 Z M 22.65625 -9.09375 "/>
            </g>
        </g>
    </g>
    <g fill="#393536" fill-opacity="1">
        <g transform="translate(301.429293, 168.746929)">
            <g>
                <path d="M 4.984375 -44.5 L 30.421875 -44.5 L 30.421875 -35.40625 L 14.671875 -35.40625 L 14.671875 -27.234375 L 26.171875 -27.234375 L 26.171875 -18.140625 L 14.671875 -18.140625 L 14.671875 -9.09375 L 30.75 -9.09375 L 30.75 0 L 4.984375 0 Z M 4.984375 -44.5 "/>
            </g>
        </g>
    </g>
    <g fill="#393536" fill-opacity="1">
        <g transform="translate(347.926241, 168.746929)">
            <g>
                <path d="M 4.984375 -44.5 L 14.671875 -44.5 L 14.671875 0 L 4.984375 0 Z M 4.984375 -44.5 "/>
            </g>
        </g>
    </g>
    <g fill="#393536" fill-opacity="1">
        <g transform="translate(380.009877, 168.746929)">
            <g>
                <path d="M 14.140625 -26.5 L 14.140625 0 L 4.984375 0 L 4.984375 -45.296875 L 10.03125 -45.296875 L 34.875 -18 L 34.875 -44.5 L 44.03125 -44.5 L 44.03125 0.796875 L 38.984375 0.796875 Z M 14.140625 -26.5 "/>
            </g>
        </g>
    </g>
    <g fill="#393536" fill-opacity="1">
        <g transform="translate(441.451516, 168.746929)">
            <g>
                <path d="M 16.9375 1.203125 C 13.476562 1.203125 10.375 0.425781 7.625 -1.125 C 4.882812 -2.675781 2.675781 -4.914062 1 -7.84375 L 7.765625 -13.484375 C 10.066406 -9.367188 13.101562 -7.3125 16.875 -7.3125 C 18.550781 -7.3125 19.910156 -7.71875 20.953125 -8.53125 C 21.992188 -9.351562 22.515625 -10.425781 22.515625 -11.75 C 22.515625 -12.988281 22.003906 -14.0625 20.984375 -14.96875 C 19.972656 -15.882812 18.132812 -16.914062 15.46875 -18.0625 C 11.351562 -19.882812 8.351562 -21.910156 6.46875 -24.140625 C 4.59375 -26.378906 3.65625 -29.046875 3.65625 -32.140625 C 3.65625 -34.097656 4.007812 -35.894531 4.71875 -37.53125 C 5.425781 -39.164062 6.421875 -40.566406 7.703125 -41.734375 C 8.984375 -42.910156 10.507812 -43.820312 12.28125 -44.46875 C 14.050781 -45.113281 16.003906 -45.4375 18.140625 -45.4375 C 23.753906 -45.4375 28.507812 -43.019531 32.40625 -38.1875 L 25.96875 -32.34375 C 24.726562 -33.988281 23.488281 -35.195312 22.25 -35.96875 C 21.007812 -36.738281 19.640625 -37.125 18.140625 -37.125 C 16.671875 -37.125 15.503906 -36.757812 14.640625 -36.03125 C 13.773438 -35.300781 13.34375 -34.316406 13.34375 -33.078125 C 13.34375 -31.703125 13.921875 -30.570312 15.078125 -29.6875 C 16.234375 -28.800781 17.960938 -27.847656 20.265625 -26.828125 C 24.460938 -24.972656 27.503906 -22.90625 29.390625 -20.625 C 31.273438 -18.34375 32.21875 -15.648438 32.21875 -12.546875 C 32.21875 -10.515625 31.835938 -8.65625 31.078125 -6.96875 C 30.328125 -5.289062 29.285156 -3.84375 27.953125 -2.625 C 26.628906 -1.40625 25.023438 -0.460938 23.140625 0.203125 C 21.265625 0.867188 19.195312 1.203125 16.9375 1.203125 Z M 16.9375 1.203125 "/>
            </g>
        </g>
    </g>
    <g fill="#393536" fill-opacity="1">
        <g transform="translate(488.612685, 168.746929)">
            <g>
                <path d="M 4.984375 -44.5 L 14.671875 -44.5 L 14.671875 0 L 4.984375 0 Z M 4.984375 -44.5 "/>
            </g>
        </g>
    </g>
    <g fill="#393536" fill-opacity="1">
        <g transform="translate(520.696321, 168.746929)">
            <g>
                <path d="M 24.84375 0.859375 C 21.613281 0.859375 18.625 0.285156 15.875 -0.859375 C 13.125 -2.015625 10.742188 -3.617188 8.734375 -5.671875 C 6.722656 -7.734375 5.148438 -10.148438 4.015625 -12.921875 C 2.890625 -15.691406 2.328125 -18.710938 2.328125 -21.984375 C 2.328125 -25.347656 2.910156 -28.457031 4.078125 -31.3125 C 5.253906 -34.175781 6.882812 -36.644531 8.96875 -38.71875 C 11.050781 -40.800781 13.5 -42.441406 16.3125 -43.640625 C 19.125 -44.835938 22.164062 -45.4375 25.4375 -45.4375 C 28.9375 -45.4375 32.179688 -44.757812 35.171875 -43.40625 C 38.160156 -42.050781 40.71875 -40.160156 42.84375 -37.734375 L 36.0625 -31.078125 C 34.644531 -32.628906 33.050781 -33.835938 31.28125 -34.703125 C 29.507812 -35.566406 27.628906 -36 25.640625 -36 C 23.734375 -36 21.984375 -35.65625 20.390625 -34.96875 C 18.796875 -34.28125 17.410156 -33.316406 16.234375 -32.078125 C 15.066406 -30.835938 14.160156 -29.375 13.515625 -27.6875 C 12.867188 -26.007812 12.546875 -24.175781 12.546875 -22.1875 C 12.546875 -20.195312 12.867188 -18.359375 13.515625 -16.671875 C 14.160156 -14.984375 15.078125 -13.539062 16.265625 -12.34375 C 17.460938 -11.15625 18.878906 -10.226562 20.515625 -9.5625 C 22.160156 -8.894531 23.976562 -8.5625 25.96875 -8.5625 C 27.65625 -8.5625 29.21875 -8.78125 30.65625 -9.21875 C 32.09375 -9.664062 33.429688 -10.398438 34.671875 -11.421875 L 34.671875 -17.46875 L 26.171875 -17.46875 L 26.171875 -25.4375 L 44.375 -25.4375 L 44.375 -7.578125 C 42.019531 -4.867188 39.148438 -2.785156 35.765625 -1.328125 C 32.378906 0.128906 28.738281 0.859375 24.84375 0.859375 Z M 24.84375 0.859375 "/>
            </g>
        </g>
    </g>
    <g fill="#393536" fill-opacity="1">
        <g transform="translate(580.809544, 168.746929)">
            <g>
                <path d="M 4.984375 -44.5 L 14.671875 -44.5 L 14.671875 -27.09375 L 32.015625 -27.09375 L 32.015625 -44.5 L 41.71875 -44.5 L 41.71875 0 L 32.015625 0 L 32.015625 -18 L 14.671875 -18 L 14.671875 0 L 4.984375 0 Z M 4.984375 -44.5 "/>
            </g>
        </g>
    </g>
    <g fill="#393536" fill-opacity="1">
        <g transform="translate(639.9265, 168.746929)">
            <g>
                <path d="M 14.28125 -35.40625 L 1.328125 -35.40625 L 1.328125 -44.5 L 36.9375 -44.5 L 36.9375 -35.40625 L 23.984375 -35.40625 L 23.984375 0 L 14.28125 0 Z M 14.28125 -35.40625 "/>
            </g>
        </g>
    </g>
    <g fill="#393536" fill-opacity="1">
        <g transform="translate(690.607949, 168.746929)">
            <g>
                <path d="M 16.9375 1.203125 C 13.476562 1.203125 10.375 0.425781 7.625 -1.125 C 4.882812 -2.675781 2.675781 -4.914062 1 -7.84375 L 7.765625 -13.484375 C 10.066406 -9.367188 13.101562 -7.3125 16.875 -7.3125 C 18.550781 -7.3125 19.910156 -7.71875 20.953125 -8.53125 C 21.992188 -9.351562 22.515625 -10.425781 22.515625 -11.75 C 22.515625 -12.988281 22.003906 -14.0625 20.984375 -14.96875 C 19.972656 -15.882812 18.132812 -16.914062 15.46875 -18.0625 C 11.351562 -19.882812 8.351562 -21.910156 6.46875 -24.140625 C 4.59375 -26.378906 3.65625 -29.046875 3.65625 -32.140625 C 3.65625 -34.097656 4.007812 -35.894531 4.71875 -37.53125 C 5.425781 -39.164062 6.421875 -40.566406 7.703125 -41.734375 C 8.984375 -42.910156 10.507812 -43.820312 12.28125 -44.46875 C 14.050781 -45.113281 16.003906 -45.4375 18.140625 -45.4375 C 23.753906 -45.4375 28.507812 -43.019531 32.40625 -38.1875 L 25.96875 -32.34375 C 24.726562 -33.988281 23.488281 -35.195312 22.25 -35.96875 C 21.007812 -36.738281 19.640625 -37.125 18.140625 -37.125 C 16.671875 -37.125 15.503906 -36.757812 14.640625 -36.03125 C 13.773438 -35.300781 13.34375 -34.316406 13.34375 -33.078125 C 13.34375 -31.703125 13.921875 -30.570312 15.078125 -29.6875 C 16.234375 -28.800781 17.960938 -27.847656 20.265625 -26.828125 C 24.460938 -24.972656 27.503906 -22.90625 29.390625 -20.625 C 31.273438 -18.34375 32.21875 -15.648438 32.21875 -12.546875 C 32.21875 -10.515625 31.835938 -8.65625 31.078125 -6.96875 C 30.328125 -5.289062 29.285156 -3.84375 27.953125 -2.625 C 26.628906 -1.40625 25.023438 -0.460938 23.140625 0.203125 C 21.265625 0.867188 19.195312 1.203125 16.9375 1.203125 Z M 16.9375 1.203125 "/>
            </g>
        </g>
    </g>
    <g clip-path="url(#577fef4717)">
        <path fill="#f7df1e"
              class="colored"
              d="M 372.003906 62.441406 C 372.003906 63.027344 371.976562 63.613281 371.917969 64.199219 C 371.859375 64.78125 371.773438 65.363281 371.660156 65.9375 C 371.542969 66.515625 371.402344 67.082031 371.230469 67.644531 C 371.058594 68.207031 370.859375 68.757812 370.632812 69.300781 C 370.410156 69.84375 370.15625 70.375 369.878906 70.890625 C 369.601562 71.410156 369.296875 71.914062 368.96875 72.402344 C 368.644531 72.890625 368.292969 73.359375 367.917969 73.8125 C 367.542969 74.269531 367.148438 74.703125 366.730469 75.117188 C 366.3125 75.53125 365.875 75.925781 365.421875 76.300781 C 364.964844 76.671875 364.492188 77.019531 364 77.347656 C 363.511719 77.671875 363.003906 77.976562 362.484375 78.253906 C 361.964844 78.527344 361.433594 78.78125 360.886719 79.003906 C 360.34375 79.230469 359.789062 79.425781 359.222656 79.597656 C 358.660156 79.765625 358.085938 79.910156 357.507812 80.023438 C 356.929688 80.140625 356.347656 80.226562 355.761719 80.28125 C 355.171875 80.339844 354.585938 80.367188 353.996094 80.367188 C 353.40625 80.367188 352.816406 80.339844 352.230469 80.28125 C 351.640625 80.226562 351.058594 80.140625 350.480469 80.023438 C 349.902344 79.910156 349.332031 79.765625 348.765625 79.597656 C 348.203125 79.425781 347.648438 79.230469 347.101562 79.003906 C 346.558594 78.78125 346.023438 78.527344 345.503906 78.253906 C 344.984375 77.976562 344.480469 77.671875 343.988281 77.347656 C 343.496094 77.019531 343.023438 76.671875 342.570312 76.300781 C 342.113281 75.925781 341.675781 75.53125 341.257812 75.117188 C 340.84375 74.703125 340.445312 74.269531 340.070312 73.8125 C 339.699219 73.359375 339.347656 72.890625 339.019531 72.402344 C 338.691406 71.914062 338.386719 71.410156 338.109375 70.890625 C 337.832031 70.375 337.582031 69.84375 337.355469 69.300781 C 337.128906 68.757812 336.929688 68.207031 336.757812 67.644531 C 336.589844 67.082031 336.445312 66.515625 336.328125 65.9375 C 336.214844 65.363281 336.128906 64.78125 336.070312 64.199219 C 336.011719 63.613281 335.984375 63.027344 335.984375 62.441406 C 335.984375 61.851562 336.011719 61.265625 336.070312 60.683594 C 336.128906 60.097656 336.214844 59.519531 336.328125 58.941406 C 336.445312 58.367188 336.589844 57.796875 336.757812 57.234375 C 336.929688 56.671875 337.128906 56.121094 337.355469 55.578125 C 337.582031 55.035156 337.832031 54.507812 338.109375 53.988281 C 338.386719 53.46875 338.691406 52.96875 339.019531 52.480469 C 339.347656 51.992188 339.699219 51.519531 340.070312 51.066406 C 340.445312 50.613281 340.84375 50.175781 341.257812 49.761719 C 341.675781 49.347656 342.113281 48.953125 342.570312 48.582031 C 343.023438 48.207031 343.496094 47.859375 343.988281 47.53125 C 344.480469 47.207031 344.984375 46.90625 345.503906 46.628906 C 346.023438 46.351562 346.558594 46.101562 347.101562 45.875 C 347.648438 45.652344 348.203125 45.453125 348.765625 45.28125 C 349.332031 45.113281 349.902344 44.96875 350.480469 44.855469 C 351.058594 44.742188 351.640625 44.65625 352.230469 44.597656 C 352.816406 44.539062 353.40625 44.511719 353.996094 44.511719 C 354.585938 44.511719 355.171875 44.539062 355.761719 44.597656 C 356.347656 44.65625 356.929688 44.742188 357.507812 44.855469 C 358.085938 44.96875 358.660156 45.113281 359.222656 45.28125 C 359.789062 45.453125 360.34375 45.652344 360.886719 45.875 C 361.433594 46.101562 361.964844 46.351562 362.484375 46.628906 C 363.003906 46.90625 363.511719 47.207031 364 47.53125 C 364.492188 47.859375 364.964844 48.207031 365.421875 48.582031 C 365.875 48.953125 366.3125 49.347656 366.730469 49.761719 C 367.148438 50.175781 367.542969 50.613281 367.917969 51.066406 C 368.292969 51.519531 368.644531 51.992188 368.96875 52.480469 C 369.296875 52.96875 369.601562 53.46875 369.878906 53.988281 C 370.15625 54.507812 370.410156 55.035156 370.632812 55.578125 C 370.859375 56.121094 371.058594 56.671875 371.230469 57.234375 C 371.402344 57.796875 371.542969 58.367188 371.660156 58.941406 C 371.773438 59.519531 371.859375 60.097656 371.917969 60.683594 C 371.976562 61.265625 372.003906 61.851562 372.003906 62.441406 Z M 372.003906 62.441406 "
              fill-opacity="1" fill-rule="nonzero"/>
    </g>
    <g clip-path="url(#f5a05143e1)">
        <path fill="#04182d"
              d="M 368.144531 100.199219 L 347.882812 100.199219 C 347.539062 100.199219 347.261719 99.921875 347.261719 99.578125 L 347.261719 88.0625 C 347.261719 86.078125 346.339844 84.210938 344.730469 82.9375 C 338.964844 78.375 335.988281 71.28125 336.773438 63.953125 C 337.847656 53.886719 346.328125 45.765625 356.496094 45.0625 C 362.492188 44.648438 368.214844 46.660156 372.589844 50.726562 C 376.90625 54.738281 379.382812 60.40625 379.382812 66.28125 C 379.382812 72.8125 376.429688 78.890625 371.277344 82.953125 C 369.683594 84.210938 368.769531 86.074219 368.769531 88.0625 L 368.769531 99.578125 C 368.769531 99.921875 368.492188 100.199219 368.144531 100.199219 Z M 348.507812 98.957031 L 367.523438 98.957031 L 367.523438 88.0625 C 367.523438 85.691406 368.609375 83.476562 370.503906 81.984375 C 375.355469 78.15625 378.136719 72.433594 378.136719 66.28125 C 378.136719 60.75 375.804688 55.410156 371.738281 51.632812 C 367.617188 47.808594 362.242188 45.914062 356.582031 46.300781 C 347.007812 46.960938 339.023438 54.605469 338.011719 64.085938 C 337.273438 70.988281 340.074219 77.671875 345.507812 81.96875 C 347.414062 83.476562 348.507812 85.695312 348.507812 88.0625 Z M 348.507812 98.957031 "
              fill-opacity="1" fill-rule="nonzero"/>
    </g>
    <g clip-path="url(#81be3f9e19)">
        <path fill="#04182d"
              d="M 357.863281 103.761719 C 353.4375 103.761719 349.972656 101.925781 349.972656 99.578125 C 349.972656 99.238281 350.25 98.957031 350.597656 98.957031 C 350.941406 98.957031 351.21875 99.238281 351.21875 99.578125 C 351.21875 100.96875 353.949219 102.519531 357.863281 102.519531 C 361.777344 102.519531 364.507812 100.96875 364.507812 99.578125 C 364.507812 99.238281 364.785156 98.957031 365.132812 98.957031 C 365.476562 98.957031 365.753906 99.238281 365.753906 99.578125 C 365.753906 101.925781 362.289062 103.761719 357.863281 103.761719 Z M 357.863281 103.761719 "
              fill-opacity="1" fill-rule="nonzero"/>
    </g>
    <path fill="#04182d"
          d="M 345.472656 88.683594 C 345.148438 88.683594 344.871094 88.433594 344.851562 88.105469 C 344.828125 87.761719 345.085938 87.46875 345.429688 87.445312 L 370.515625 85.714844 C 370.867188 85.691406 371.15625 85.949219 371.179688 86.289062 C 371.203125 86.632812 370.945312 86.925781 370.601562 86.949219 L 345.515625 88.679688 C 345.5 88.683594 345.484375 88.683594 345.472656 88.683594 Z M 345.472656 88.683594 "
          fill-opacity="1" fill-rule="nonzero"/>
    <path fill="#04182d"
          d="M 345.472656 92.652344 C 345.148438 92.652344 344.871094 92.398438 344.851562 92.074219 C 344.828125 91.730469 345.085938 91.433594 345.429688 91.410156 L 370.515625 89.679688 C 370.867188 89.664062 371.15625 89.914062 371.179688 90.257812 C 371.203125 90.597656 370.945312 90.894531 370.601562 90.917969 L 345.515625 92.648438 C 345.5 92.648438 345.484375 92.652344 345.472656 92.652344 Z M 345.472656 92.652344 "
          fill-opacity="1" fill-rule="nonzero"/>
    <path fill="#04182d"
          d="M 345.472656 96.617188 C 345.148438 96.617188 344.871094 96.367188 344.851562 96.039062 C 344.828125 95.699219 345.085938 95.402344 345.429688 95.378906 L 370.515625 93.648438 C 370.867188 93.625 371.15625 93.882812 371.179688 94.222656 C 371.203125 94.566406 370.945312 94.863281 370.601562 94.886719 L 345.515625 96.617188 C 345.5 96.617188 345.484375 96.617188 345.472656 96.617188 Z M 345.472656 96.617188 "
          fill-opacity="1" fill-rule="nonzero"/>
</svg>
